PathFileType	4	(X/Y/Z)	 s09c0403.trc
DataRate	CameraRate	NumFrames	NumMarkers	Units	OrigDataRate	OrigDataStartFrame	OrigNumFrames
200	200	4	50	mm	200	501	2000
Frame#	Time	racr			lacr			c7			jug			rlel			rdr			llel			ldr			s2			lic			ric			lasi			rasi			rpsi			lpsi			rgt			lgt			rth1			rth2			rth3			rth4			rlfc			rmfc			rsh1			rsh2			rsh3			rsh4			rlmal			rmmal			rcal			rtoe			rmt5			lth1			lth2			lth4			lth3			llfc			lmfc			llmal			lmmal			lcal			lmt5			lsh1			lsh2			lsh3			lsh4			ltoe			SBIKE			LBIKE			RBIKE			
		X1	Y1	Z1	X2	Y2	Z2	X3	Y3	Z3	X4	Y4	Z4	X5	Y5	Z5	X6	Y6	Z6	X7	Y7	Z7	X8	Y8	Z8	X9	Y9	Z9	X10	Y10	Z10	X11	Y11	Z11	X12	Y12	Z12	X13	Y13	Z13	X14	Y14	Z14	X15	Y15	Z15	X16	Y16	Z16	X17	Y17	Z17	X18	Y18	Z18	X19	Y19	Z19	X20	Y20	Z20	X21	Y21	Z21	X22	Y22	Z22	X23	Y23	Z23	X24	Y24	Z24	X25	Y25	Z25	X26	Y26	Z26	X27	Y27	Z27	X28	Y28	Z28	X29	Y29	Z29	X30	Y30	Z30	X31	Y31	Z31	X32	Y32	Z32	X33	Y33	Z33	X34	Y34	Z34	X35	Y35	Z35	X36	Y36	Z36	X37	Y37	Z37	X38	Y38	Z38	X39	Y39	Z39	X40	Y40	Z40	X41	Y41	Z41	X42	Y42	Z42	X43	Y43	Z43	X44	Y44	Z44	X45	Y45	Z45	X46	Y46	Z46	X47	Y47	Z47	X48	Y48	Z48	X49	Y49	Z49	X50	Y50	Z50	
501	2.5050	700.486244	1305.873802	-139.219181	630.718034	1298.529713	-510.204348	655.368638	1401.753694	-322.554755	665.396913	1260.416633	-321.228359	565.139412	1113.757512	-10.406159	688.765039	911.897810	-51.474208	485.168731	1054.633912	-554.080635	667.543743	914.690766	-456.720643	199.407925	1221.048730	-220.992642	313.059425	1196.234069	-382.664255	349.963539	1187.429539	-92.139719	349.909058	1129.070279	-364.118416	371.870110	1125.726837	-114.413392	237.879845	1244.553429	-162.314958	229.379054	1252.383654	-269.829896	282.366315	1056.059999	-40.538055	271.439285	1090.472109	-417.374756	335.344510	920.187449	-46.925344	384.514890	848.210541	-55.761053	385.498853	759.499024	-65.588399	413.496091	858.009426	-76.135265	388.738072	653.134561	-95.277536	363.563041	643.152597	-192.584162	303.830719	590.495243	-64.820902	259.794094	513.488128	-80.365930	184.391423	469.288140	-78.990315	279.763380	498.968892	-112.101327	110.953964	397.126394	-78.675513	118.832230	405.016119	-156.979632	28.763085	414.641543	-120.184103	219.920261	230.701558	-125.656752	150.219866	274.246649	-59.942328	363.183457	979.403358	-425.297340	436.284661	934.672177	-421.466318	463.205380	958.066909	-408.671847	478.290496	855.753523	-424.173207	528.943792	761.709260	-410.717728	549.413720	743.127184	-314.375675	350.636558	433.715519	-414.658726	363.729337	446.959220	-338.606069	274.765862	391.718934	-375.458054	447.395868	361.871779	-435.879139	478.902862	672.117562	-432.728199	456.415700	588.283121	-422.189445	393.116329	526.070960	-419.760864	479.302725	578.608592	-391.123633	536.991245	390.132933	-367.483434	-64.712798	852.040643	-239.392397	20.936585	84.954935	-442.136592	21.119918	84.232628	-43.790938	
502	2.5100	699.979141	1306.843266	-137.867093	630.995967	1296.855512	-510.041260	655.653664	1400.913313	-322.711617	665.620154	1259.570761	-320.508325	565.551881	1114.111242	-9.510436	688.894307	912.061844	-50.729519	484.329272	1053.854474	-553.307639	667.304489	914.646701	-455.837696	198.933106	1220.367479	-223.036048	313.985984	1193.900349	-384.005341	348.879950	1188.281227	-93.069152	350.578900	1126.929792	-364.445552	371.062502	1126.554175	-114.804093	238.803214	1243.284310	-166.295182	229.360228	1251.110484	-272.818636	282.672000	1057.272000	-41.004955	271.170700	1086.903415	-417.959749	336.900860	921.515472	-47.291424	386.904008	850.198373	-55.938246	388.749991	761.583083	-65.450828	415.833142	860.174772	-76.311044	394.152877	655.209946	-95.346652	369.077910	645.373516	-192.774844	308.291573	594.163691	-65.218796	262.852219	518.386385	-80.553184	185.793739	476.028042	-79.501594	281.924727	503.372227	-112.600243	110.686277	405.953181	-79.229255	119.647214	413.107310	-157.689767	28.617190	424.290847	-120.538739	218.991419	239.478809	-124.406431	148.736675	282.966652	-59.974529	361.233453	975.533336	-426.208705	433.423233	930.162435	-422.204986	461.138874	952.892672	-409.720060	474.846803	850.191766	-424.459667	524.781550	755.492024	-410.174429	545.384342	737.611324	-314.790476	351.550760	424.657558	-414.644132	364.327465	438.161423	-339.211546	276.414465	382.088638	-375.382920	449.021495	353.026241	-435.829799	475.845029	665.240472	-432.718158	454.871435	581.064553	-422.257978	392.723350	517.703743	-419.768151	477.936630	571.761701	-391.168563	538.625159	381.509437	-367.494590	-64.746837	852.004972	-239.361714	20.920947	84.955474	-442.156027	21.132419	84.237358	-43.794922	
503	2.5150	699.348975	1307.546652	-136.677448	631.249267	1295.296548	-509.684275	655.929302	1400.059869	-322.733511	665.936961	1258.741050	-319.631234	565.613865	1114.240692	-9.095584	688.895058	912.527080	-50.062441	483.978400	1052.941808	-552.561918	667.283914	914.646706	-454.949146	199.145295	1218.655951	-225.356430	315.018234	1191.329689	-385.356240	347.794409	1188.807900	-94.108222	351.348479	1124.765834	-364.838798	370.243581	1127.059143	-115.166326	237.543075	1242.946863	-168.553595	229.300521	1248.599556	-277.897448	283.039115	1058.185748	-41.587037	270.949877	1083.021473	-418.550912	338.579982	922.596953	-47.901658	389.441508	851.835647	-56.234957	392.431749	763.286765	-65.283679	418.271337	862.127919	-76.652612	399.696131	657.196079	-95.396912	374.948622	647.493479	-192.975143	312.738707	597.925172	-65.496179	265.445676	523.399941	-80.967678	187.381461	482.965212	-79.939023	284.269087	507.800942	-112.940759	110.783919	414.802240	-79.666725	120.211073	421.677460	-158.256400	28.906575	434.025238	-120.958483	217.416506	247.354782	-124.275926	147.521434	291.619449	-59.973503	359.433661	971.271291	-426.786997	430.896079	925.039645	-423.076797	459.178073	947.529153	-410.587641	471.134702	844.354455	-424.763867	520.441331	749.269071	-410.172099	541.148173	731.842048	-315.019661	352.172974	415.811736	-414.761544	365.184501	429.367404	-339.363599	278.253613	372.494842	-374.952605	450.392290	343.961407	-435.791288	472.564561	658.402985	-432.728580	453.026525	573.916166	-422.279463	392.094425	509.309943	-419.688632	476.400322	564.939322	-391.333666	539.870953	372.623677	-367.480351	-64.742572	851.943886	-239.340422	20.910842	84.959558	-442.162195	21.113884	84.258202	-43.807053	
504	2.5200	698.512460	1308.163695	-135.530548	631.541706	1293.711620	-509.006784	656.164300	1399.192976	-322.703094	666.244222	1257.977187	-318.666217	565.830890	1114.381592	-8.341999	689.080014	912.657146	-49.594256	483.538335	1052.130077	-551.559955	667.350033	914.520820	-453.942416	199.828184	1215.897401	-228.750223	316.097814	1188.757445	-386.928040	346.349276	1188.950997	-95.039903	352.234439	1122.437891	-365.006046	369.449232	1127.383271	-115.461770	237.454464	1241.850264	-171.537733	229.179469	1246.526622	-281.034927	283.464869	1058.665745	-42.145450	270.722537	1078.776228	-419.195766	340.394945	923.528776	-48.583857	392.229255	853.220838	-56.818390	396.263186	764.849861	-65.278899	420.834644	863.999694	-77.142897	405.330397	659.079580	-95.449313	381.167240	649.557396	-193.100024	317.268416	601.872806	-65.759654	268.229186	528.472446	-81.208488	189.231908	489.880061	-80.309823	286.843672	512.284182	-112.925620	111.416435	423.636694	-79.943746	120.953484	430.316513	-158.487036	29.485645	443.762814	-121.381072	216.330496	255.338454	-124.315196	146.727096	300.293929	-59.960064	357.599844	966.701761	-427.333510	428.337419	919.716489	-423.645402	456.682419	942.172345	-411.685709	467.550048	838.304347	-424.791641	515.846637	742.891099	-410.400440	536.706047	725.833684	-315.152620	352.496669	406.957509	-414.788273	366.015520	420.041498	-339.041098	279.103766	363.196740	-374.945703	451.246922	334.981891	-435.738246	469.053815	651.389574	-432.582498	451.030373	566.643588	-422.376573	391.168951	500.974482	-419.649051	474.613296	557.923111	-391.502736	540.760620	363.572392	-367.430254	-64.737180	851.946169	-239.378222	20.898602	84.949074	-442.178077	21.135273	84.247286	-43.825886	
